<?xml version="1.0" encoding="UTF-8" standalone="no"?>
<!DOCTYPE svg PUBLIC "-//W3C//DTD SVG 1.1//EN"
 "http://www.w3.org/Graphics/SVG/1.1/DTD/svg11.dtd">
<!-- Generated by graphviz version 8.1.0 (20230707.0739)
 -->
<!-- Pages: 1 -->
<svg width="180pt" height="228pt"
 viewBox="0.00 0.00 180.00 227.50" xmlns="http://www.w3.org/2000/svg" xmlns:xlink="http://www.w3.org/1999/xlink">
<g id="graph0" class="graph" transform="scale(1 1) rotate(0) translate(4 223.5)">
<polygon fill="white" stroke="none" points="-4,4 -4,-223.5 176,-223.5 176,4 -4,4"/>
<text text-anchor="middle" x="86" y="-22.2" font-family="Times New Roman,serif" font-size="14.00">Abstract Syntax Tree</text>
<text text-anchor="middle" x="86" y="-6.45" font-family="Times New Roman,serif" font-size="14.00">infix = (a|t)c | postfix = at|c•</text>
<!-- 0 -->
<g id="node1" class="node">
<title>0</title>
<ellipse fill="none" stroke="black" cx="104" cy="-201.5" rx="27" ry="18"/>
<text text-anchor="middle" x="104" y="-196.07" font-family="Times New Roman,serif" font-size="14.00">•</text>
</g>
<!-- 2 -->
<g id="node2" class="node">
<title>2</title>
<ellipse fill="none" stroke="black" cx="68" cy="-129.5" rx="27" ry="18"/>
<text text-anchor="middle" x="68" y="-124.08" font-family="Times New Roman,serif" font-size="14.00">|</text>
</g>
<!-- 0&#45;&gt;2 -->
<g id="edge3" class="edge">
<title>0&#45;&gt;2</title>
<path fill="none" stroke="black" d="M95.65,-184.26C91.38,-175.96 86.08,-165.65 81.27,-156.29"/>
<polygon fill="black" stroke="black" points="83.99,-154.94 76.3,-147.65 77.77,-158.14 83.99,-154.94"/>
</g>
<!-- 1 -->
<g id="node5" class="node">
<title>1</title>
<ellipse fill="none" stroke="black" cx="140" cy="-129.5" rx="27" ry="18"/>
<text text-anchor="middle" x="140" y="-124.08" font-family="Times New Roman,serif" font-size="14.00">c</text>
</g>
<!-- 0&#45;&gt;1 -->
<g id="edge4" class="edge">
<title>0&#45;&gt;1</title>
<path fill="none" stroke="black" d="M112.35,-184.26C116.62,-175.96 121.92,-165.65 126.73,-156.29"/>
<polygon fill="black" stroke="black" points="130.23,-158.14 131.7,-147.65 124.01,-154.94 130.23,-158.14"/>
</g>
<!-- 4 -->
<g id="node3" class="node">
<title>4</title>
<ellipse fill="none" stroke="black" cx="32" cy="-57.5" rx="27" ry="18"/>
<text text-anchor="middle" x="32" y="-52.08" font-family="Times New Roman,serif" font-size="14.00">a</text>
</g>
<!-- 2&#45;&gt;4 -->
<g id="edge1" class="edge">
<title>2&#45;&gt;4</title>
<path fill="none" stroke="black" d="M59.65,-112.26C55.38,-103.96 50.08,-93.65 45.27,-84.29"/>
<polygon fill="black" stroke="black" points="47.99,-82.94 40.3,-75.65 41.77,-86.14 47.99,-82.94"/>
</g>
<!-- 3 -->
<g id="node4" class="node">
<title>3</title>
<ellipse fill="none" stroke="black" cx="104" cy="-57.5" rx="27" ry="18"/>
<text text-anchor="middle" x="104" y="-52.08" font-family="Times New Roman,serif" font-size="14.00">t</text>
</g>
<!-- 2&#45;&gt;3 -->
<g id="edge2" class="edge">
<title>2&#45;&gt;3</title>
<path fill="none" stroke="black" d="M76.35,-112.26C80.62,-103.96 85.92,-93.65 90.73,-84.29"/>
<polygon fill="black" stroke="black" points="94.23,-86.14 95.7,-75.65 88.01,-82.94 94.23,-86.14"/>
</g>
</g>
</svg>
